<svg width="33" height="34" viewBox="0 0 33 34" fill="none" xmlns="http://www.w3.org/2000/svg">
<path fill-rule="evenodd" clip-rule="evenodd" d="M16.5001 0.659668C7.38738 0.659668 0 8.04742 0 17.1589C0 26.2733 7.38738 33.6604 16.5001 33.6604C25.6126 33.6604 33 26.2733 33 17.1589C33 8.04742 25.6126 0.659668 16.5001 0.659668ZM22.2028 18.034L13.9528 23.1912C13.7859 23.2955 13.596 23.3473 13.4063 23.3473C13.2344 23.3473 13.062 23.304 12.9063 23.2175C12.5785 23.0365 12.375 22.6902 12.375 22.3169V12.0039C12.375 11.6291 12.5785 11.2835 12.9063 11.1019C13.2341 10.9188 13.6349 10.9294 13.9528 11.1295L22.2028 16.2846C22.5042 16.4741 22.6876 16.8048 22.6876 17.1589C22.6876 17.5152 22.5042 17.8466 22.2028 18.034Z" fill="#ED1E79"/>
</svg>
