<svg width="23" height="22" viewBox="0 0 23 22" fill="none" xmlns="http://www.w3.org/2000/svg">
<path fill-rule="evenodd" clip-rule="evenodd" d="M11.4726 21.2836C5.59532 21.2836 0.830811 16.5192 0.830811 10.6418C0.830811 4.76453 5.59532 0 11.4726 0C17.35 0 22.1145 4.76453 22.1145 10.6418C22.1145 16.5192 17.35 21.2836 11.4726 21.2836ZM11.4724 19.3489C16.2811 19.3489 20.1794 15.4507 20.1794 10.642C20.1794 5.83331 16.2811 1.93506 11.4724 1.93506C6.66371 1.93506 2.76548 5.83331 2.76548 10.642C2.76548 15.4507 6.66371 19.3489 11.4724 19.3489ZM14.6584 7.05566L9.53788 12.1762L7.31964 9.95801L5.95148 11.3262L9.53788 14.9125L16.0266 8.42383L14.6584 7.05566Z" fill="#fff"/>
</svg>
